# xmcd CD database file
#
# Track frame offsets:
#	150
#	13535
#	28960
#	41537
#	57842
#	71437
#	83305
#	94037
#	105702
#	116610
#	131907
#	142675
#	154112
#	165022
#	178225
#	193392
#	204277
#	221662
#	233417
#	248460
#	264145
#	279207
#	289445
#	302767
#	313870
#	328132
#
# Disc length: 4565 seconds
#
# Revision: 3
# Processed by: cddbd v1.5.2PL0 Copyright (c) Steve Scherf et al.
# Submitted via: CDex 1.70beta2
#
DISCID=6211d31a
DTITLE=Kenny Rogers - The First Edition
DYEAR=1997
DGENRE=Country
TTITLE0=Ruby Don't Take Your Love To Town
TTITLE1=For The Good Times
TTITLE2=Reuben James
TTITLE3=The Way It Used To Be
TTITLE4=Shine On Ruby Mountain
TTITLE5=Calico Silver
TTITLE6=Ticket To Nowhere
TTITLE7=Me and Bobby McGee
TTITLE8=We All Got To Help Each Other
TTITLE9=Just Dropped In (To See What Condition My Condition Was In)
TTITLE10=Trying Just As Hard As I Can
TTITLE11=Hurry Up Love
TTITLE12=She Even Woke Me Up To Say Goodbye
TTITLE13=Run Through Your Mind
TTITLE14=After All (I Live My Life)
TTITLE15=Goodtime Liberator
TTITLE16=Somethings Burning
TTITLE17=A Poem For My Little Lady
TTITLE18=Church Without A Name
TTITLE19=My Washington Woman
TTITLE20=Heed the Call
TTITLE21=Where Does Rosie Go
TTITLE22=Sleep Comes Easy
TTITLE23=Always Leaving, Always Gone
TTITLE24=Sunshine
TTITLE25=Loser
EXTD=CDDBSort:kenny_rogers,kenny_rogers_the_first_edition - YEAR: 1997
EXTT0=
EXTT1=
EXTT2=
EXTT3=
EXTT4=
EXTT5=
EXTT6=
EXTT7=
EXTT8=
EXTT9=
EXTT10=
EXTT11=
EXTT12=
EXTT13=
EXTT14=
EXTT15=
EXTT16=
EXTT17=
EXTT18=
EXTT19=
EXTT20=
EXTT21=
EXTT22=
EXTT23=
EXTT24=
EXTT25=
PLAYORDER=
